<svg xmlns="http://www.w3.org/2000/svg" viewBox="0 0 98 96" fill="none">
  <path
    fill="#111827"
    d="M49 0C21.9 0 0 22.4 0 50c0 22.1 14.1 40.8 33.7 47.4 2.5.5 3.4-1.1 3.4-2.4 0-1.2 0-5.2-.1-9.4-13.7 3-16.6-5.9-16.6-5.9-2.2-5.8-5.5-7.3-5.5-7.3-4.5-3.2.3-3.1.3-3.1 5 .4 7.6 5.3 7.6 5.3 4.4 7.8 11.6 5.5 14.4 4.2.4-3.3 1.7-5.5 3.1-6.7-10.9-1.3-22.4-5.6-22.4-24.8 0-5.5 1.9-9.9 5-13.4-.5-1.3-2.2-6.4.5-13.3 0 0 4.1-1.4 13.5 5.1A45.7 45.7 0 0 1 49 24c4.1 0 8.3.6 12.2 1.8 9.3-6.6 13.5-5.1 13.5-5.1 2.7 6.9 1 12 .5 13.3 3.1 3.5 5 7.9 5 13.4 0 19.3-11.5 23.5-22.5 24.8 1.8 1.6 3.3 4.6 3.3 9.4 0 6.8-.1 12.2-.1 13.9 0 1.3.9 2.9 3.4 2.4C83.9 90.8 98 72.1 98 50 98 22.4 76.1 0 49 0Z"
  />
</svg>
